name Walk1.mot
datacolumns 19
datarows 12
range 1.24000000 1.29500000
endheader

                time	   L_ground_force_vx	   L_ground_force_vy	   L_ground_force_vz	   L_ground_force_px	   L_ground_force_py	   L_ground_force_pz	   R_ground_force_vx	   R_ground_force_vy	   R_ground_force_vz	   R_ground_force_px	   R_ground_force_py	   R_ground_force_pz	   L_ground_torque_x	   L_ground_torque_y	   L_ground_torque_z	   R_ground_torque_x	   R_ground_torque_y	   R_ground_torque_z	
          1.24000000	         -5.05737980	        102.63176175	         -7.23912151	         -0.04539271	          0.00000000	         -0.00361383	         -0.00000000	          0.00000000	          0.00000000	         -0.00000000	          0.00000000	         -0.00000000	          0.00000000	          0.17106236	          0.00000000	          0.00000000	         -0.00000000	          0.00000000	
          1.24500000	         -9.41149541	        139.53075202	         -9.90433257	         -0.10232615	          0.00000000	         -0.01165569	         -0.00000000	         -0.00000000	          0.00000000	         -0.00000000	          0.00000000	         -0.00000000	          0.00000000	          0.25491168	          0.00000000	          0.00000000	         -0.00000000	          0.00000000	
          1.25000000	        -15.35947425	        178.31912944	        -12.72303793	         -0.15271411	          0.00000000	         -0.01872683	          0.00000000	         -0.00000001	          0.00000000	         -0.00000000	          0.00000000	         -0.00000000	          0.00000000	          0.35593986	          0.00000000	          0.00000000	          0.00000000	          0.00000000	
          1.25500000	        -22.87522142	        216.82271680	        -15.50199832	         -0.19474885	          0.00000000	         -0.02462524	          0.00000000	         -0.00000002	          0.00000000	         -0.00000000	          0.00000000	         -0.00000000	          0.00000000	          0.47189827	          0.00000000	          0.00000000	          0.00000000	          0.00000000	
          1.26000000	        -31.63942909	        253.59408924	        -18.03897422	         -0.22793777	          0.00000000	         -0.02932635	          0.00000000	         -0.00000003	          0.00000000	         -0.00000000	          0.00000000	         -0.00000000	          0.00000000	          0.59951255	          0.00000000	          0.00000000	          0.00000000	          0.00000000	
          1.26500000	        -41.10624745	        287.92398777	        -20.17712836	         -0.25267206	          0.00000000	         -0.03290970	          0.00000001	         -0.00000004	          0.00000000	         -0.00000000	          0.00000000	         -0.00000000	          0.00000000	          0.73447127	          0.00000000	          0.00000000	          0.00000000	          0.00000000	
          1.27000000	        -50.62710065	        319.54884036	        -21.81742507	         -0.26987436	          0.00000000	         -0.03551510	          0.00000001	         -0.00000005	          0.00000000	         -0.00000000	          0.00000000	         -0.00000000	          0.00000000	          0.87144109	          0.00000000	          0.00000000	          0.00000000	          0.00000000	
          1.27500000	        -59.58513581	        348.53008268	        -22.90955045	         -0.28073110	          0.00000000	         -0.03730933	          0.00000001	         -0.00000007	          0.00000000	         -0.00000000	          0.00000000	         -0.00000000	          0.00000000	          1.00453805	          0.00000000	          0.00000000	          0.00000000	          0.00000000	
          1.28000000	        -67.54389160	        375.10553482	        -23.43446110	         -0.28649589	          0.00000000	         -0.03846512	          0.00000002	         -0.00000008	          0.00000000	         -0.00000000	          0.00000000	         -0.00000000	          0.00000000	          1.12762916	          0.00000000	          0.00000000	          0.00000000	          0.00000000	
          1.28500000	        -74.34449678	        399.53260420	        -23.38516559	         -0.28835648	          0.00000000	         -0.03914803	          0.00000002	         -0.00000010	          0.00000000	         -0.00000000	          0.00000000	         -0.00000000	          0.00000000	          1.23472992	          0.00000000	          0.00000000	          0.00000000	          0.00000000	
          1.29000000	        -80.07682162	        422.00441351	        -22.75822460	         -0.28736190	          0.00000000	         -0.03950377	          0.00000002	         -0.00000011	          0.00000000	         -0.00000000	          0.00000000	         -0.00000000	          0.00000000	          1.32084523	          0.00000000	          0.00000000	          0.00000000	          0.00000000	
          1.29500000	        -84.94405234	        442.64109309	        -21.55343418	         -0.28439592	          0.00000000	         -0.03965237	          0.00000003	         -0.00000011	          0.00000000	         -0.00000000	          0.00000000	         -0.00000000	          0.00000000	          1.38257503	          0.00000000	          0.00000000	          0.00000000	          0.00000000	
